<svg xmlns="http://www.w3.org/2000/svg" viewBox="0 0 67.52 66.11"><defs><style>.cls-1{fill:#474546;}</style></defs><title>full-screen</title><g id="Layer_2" data-name="Layer 2"><g id="Layer_1-2" data-name="Layer 1"><polygon class="cls-1" points="5 61.09 5.03 38.2 0.03 38.2 0.01 61.09 0 66.09 5 66.09 27.89 66.11 27.89 61.11 5 61.09"/><polygon class="cls-1" points="5.02 5 27.91 5.03 27.91 0.03 5.03 0 0.03 0 0.02 5 0 27.89 5 27.89 5.02 5"/><polygon class="cls-1" points="62.5 61.1 39.61 61.08 39.61 66.08 62.5 66.1 67.5 66.1 67.5 61.1 67.52 38.21 62.52 38.21 62.5 61.1"/><polygon class="cls-1" points="62.51 5 62.51 27.89 67.51 27.89 67.51 5 67.51 0 62.51 0 39.62 0 39.62 5 62.51 5"/></g></g></svg>