<svg   xmlns="http://www.w3.org/2000/svg" viewBox="0 0 129.37 130.72" height="45px" width="45px">

<path fill="#ffde00"  class="cls-1"   d="M218.12,1149.33h-37c-4.83,0-9.45,4.05-9.45,9v37.9c0,5,4.62,9,9.45,9h37c4.84,0,9.46-4,9.46-9v-37.9c0-5-4.62-9-9.46-9m0,46.93h-37v-37.9h37Z" transform="translate(-171.63 -1074.58)"/><path fill="#ffde00"  class="cls-1" d="M281.72,1177.05l17.84-27.72H288.2L275,1169.93a5.22,5.22,0,0,1-4.36,2.37h-.83a5.24,5.24,0,0,1-4.37-2.37l-13.2-20.6H240.87l17.85,27.85-19,28.11h11.53l14.61-21.59a5.24,5.24,0,0,1,4.36-2.37h.21a5.26,5.26,0,0,1,4.36,2.37l14.69,21.59H301Z" transform="translate(-171.63 -1074.58)"/><path fill="#ffde00"  class="cls-1" d="M195.75,1097.6l-5.33,9h27.65v14.94h-37v-37.91h41.12l5.35-9H181.1c-4.84,0-9.46,4.05-9.46,9v37.91c0,5,4.62,9,9.46,9h37c4.84,0,9.46-4,9.46-9v-24Z" transform="translate(-171.63 -1074.58)"/><path fill="#ffde00"  class="cls-1" d="M288.24,1074.58H247.36v56.05h40.88c4.84,0,9.47-4.05,9.47-9V1111c0-5-3-9-7.84-9,4.84,0,7.84-4,7.84-9v-9.29c0-5-4.63-9-9.47-9m0,43.29a3.67,3.67,0,0,1-3.6,3.72H256.83v-15h27.81a3.66,3.66,0,0,1,3.6,3.71Zm0-24a3.66,3.66,0,0,1-3.6,3.71H256.83v-14h27.81a3.66,3.66,0,0,1,3.6,3.72Z" transform="translate(-171.63 -1074.58)" /></svg>